PathFileType	4	(X/Y/Z)	Patient4_TMGait_0pt3_02_left_06.trc.trc
DataRate	CameraRate	NumFrames	NumMarkers	Units	OrigDataRate	OrigDataStartFrame	OrigNumFrames
47.138047138047	47.138047138047	5	33	mm	47.138047138047	53	       141
Frame#	Time	Sacral			L.Shoulder			Chest			R.Shoulder			Neck			R.ASIS			L.ASIS			R.Thigh.Superior			R.Thigh.Lateral			R.Thigh.Inferior			R.Patella			L.Thigh.Superior			L.Thigh.Lateral			L.Thigh.Inferior			L.Patella			L.Shank.Superior			L.Shank.Lateral			L.Shank.Inferior			R.Shank.Superior			R.Shank.Lateral			R.Shank.Inferior			R.Heel			R.Midfoot.Superior			R.Midfoot.Lateral			R.Toe			L.Heel			L.Midfoot.Lateral			L.Midfoot.Superior			L.Toe			L.Elbow			L.Wrist			R.Elbow			R.Wrist			
		X1	Y1	Z1	X2	Y2	Z2	X3	Y3	Z3	X4	Y4	Z4	X5	Y5	Z5	X6	Y6	Z6	X7	Y7	Z7	X8	Y8	Z8	X9	Y9	Z9	X10	Y10	Z10	X11	Y11	Z11	X12	Y12	Z12	X13	Y13	Z13	X14	Y14	Z14	X15	Y15	Z15	X16	Y16	Z16	X17	Y17	Z17	X18	Y18	Z18	X19	Y19	Z19	X20	Y20	Z20	X21	Y21	Z21	X22	Y22	Z22	X23	Y23	Z23	X24	Y24	Z24	X25	Y25	Z25	X26	Y26	Z26	X27	Y27	Z27	X28	Y28	Z28	X29	Y29	Z29	X30	Y30	Z30	X31	Y31	Z31	X32	Y32	Z32	X33	Y33	Z33	

53	12.453142857143	726.193868517288	996.900340968852	466.989926063977	899.636168303836	1423.453004208189	285.916033410965	1004.775123430101	1353.946817250341	445.481256893880	927.329945669460	1430.209177541331	619.746354056317	888.130722461958	1486.678300744035	443.620776277185	952.488668555070	930.373783758532	588.070988153815	945.983160474373	952.990503389347	314.984865507057	987.630201428578	726.226047977429	570.770692424755	903.395188160302	620.207613777595	634.058505670228	984.641554380706	558.255951918412	562.211531818105	969.311751171782	448.438896363463	585.645124381591	1008.695317811118	750.626372570961	363.677890400009	936.685817805101	620.896077792467	308.657666927906	1022.656786980058	554.817350333507	384.110157150259	1028.010989772423	480.446680964755	395.686170723058	991.704335199230	406.259425533475	390.024084672471	895.493005696987	298.631087676163	338.027250159409	927.762796773136	186.623078668669	415.211187204161	882.824327520687	389.385048684327	588.521482740751	753.889654587557	366.392487281362	639.294210129628	731.753926093348	257.490741567082	592.642712242642	529.664408072417	222.320244013287	546.911597840660	680.065611782060	137.319365528539	607.668453413229	569.254205661504	155.478821919697	625.663639958347	722.369910325488	28.892808449030	637.621390572679	783.919706498962	38.809243351575	451.107686416346	861.766865897291	36.568852121828	374.500240472047	945.126391027602	95.612522909564	406.525920078960	1073.769077754192	40.203298941169	382.246455882257	874.579416558182	1073.867086737167	164.275454895242	932.282646374440	818.850383614584	171.962410047231	1004.980719740732	1089.962760376052	739.887272885868	1192.744719657872	914.913979719341	771.104094405719	
54	12.474357142857	724.725376160096	993.536546062036	462.408987411580	900.942584474383	1422.103177671476	285.390371110994	1003.280216334822	1351.826042275671	446.363439023777	922.582373025815	1426.223844255523	620.008106310962	886.821209632835	1484.382837356326	443.519358659970	950.612448699113	928.600867391781	585.671824917476	946.723417535776	951.166276943226	312.418766383660	993.327387323984	727.227871693598	567.618765997491	913.594069500559	618.823668526450	631.127589061846	996.914775771038	559.262592917447	558.832189835302	984.186939952812	447.951438774462	582.950185208929	1009.880954469782	748.737848112811	362.147597216433	938.765832174783	618.447464783861	307.811602097988	1024.351624023547	552.921269359550	384.488088630129	1029.707773661773	478.068200790411	396.453519804352	991.905172396841	403.760419566771	390.653199544444	894.120629654744	297.710583149179	338.174632416812	923.597984905811	185.333308179290	415.631870984020	896.143198903783	389.181665768572	585.728665531343	765.591491231117	369.840613876977	634.806834926817	741.302987805512	261.026442216097	589.223512078902	539.481793887846	232.420450983480	540.519128529966	686.048860979834	142.033918531818	605.427758488117	575.145063711125	164.809117960786	620.946141129371	722.862482745927	28.776902389687	637.849483535939	777.593862622080	38.886031741332	451.027575623265	855.454885920772	36.577091010930	374.475469574223	938.861786863834	95.473702260095	406.702462368140	1067.456787957990	40.035433258936	382.214533769945	890.471101731403	1072.150668825889	161.042597231595	959.264850251077	820.143833763025	168.851540604122	983.552375700345	1080.770378129769	737.023648613957	1153.176876311122	888.023376829484	771.185013656916	
55	12.495571428571	723.154827682101	990.242202803749	458.072828828981	902.291155439054	1420.914331357902	285.259390075470	1001.653541364382	1349.758070393189	447.622729719898	917.518121344625	1422.160564797357	620.543399384320	885.398970943702	1482.134372179221	443.792394691026	948.603642372252	926.951274034209	583.569183694215	947.357965594848	949.339099307133	310.119241442400	998.728533559929	728.672041397910	564.565564638313	923.628489664680	617.970664551708	628.264955314628	1008.800616377695	560.940484004099	555.354892595209	998.907394180858	448.287858015478	580.002325864244	1010.853862912291	746.800767074407	360.848347929943	940.552637786017	615.993024922622	307.133338650509	1025.721318621840	550.983765057387	385.014922999442	1031.054775669272	475.708624672604	397.402902961590	991.830737227328	401.298045625251	391.403039447306	892.564316010449	296.786855807759	338.398078148828	919.348605970552	184.063565923003	416.074375334489	909.681341053588	389.469254753117	582.842319760245	777.747059581014	372.940629828347	630.406941860401	751.951026797320	264.082028070209	585.816595770889	550.329711447245	239.983274753656	534.469719918429	694.143359664473	146.185068066791	603.039347873574	583.089956601857	172.250678776185	616.520538268716	726.963671534989	29.010357600057	638.027131648603	771.266449651224	38.958193644583	450.946190075444	849.145372864404	36.581597829924	374.446296259577	932.597764216757	95.322378445424	406.882327977278	1061.142761924750	39.879058084056	382.180689193840	906.093154091751	1071.417996029355	158.009272893481	987.087601154071	823.316446787176	166.421257871227	960.799631929741	1072.406170327663	734.096784283906	1111.193294315296	863.997561189005	769.958199966398	
56	12.516785714286	721.536733809451	987.223765704435	453.984568871066	903.735227985197	1420.030300670398	285.516621702303	999.934845967828	1347.917962817889	449.263702345591	912.167665405042	1418.259787466484	621.310313909935	883.899959499858	1480.104324592328	444.407977469478	946.472158281149	925.575710029695	581.791317973915	947.899541150916	947.662033116005	308.139992522071	1003.646458421797	730.640091956359	561.636703963452	933.224856986197	617.783543324659	625.499635345116	1019.961956281112	563.354799939514	551.817271073372	1013.120538653094	449.567896084393	576.854301101435	1011.515580886608	744.880993768834	359.749190623844	941.810193343906	613.673048967461	306.568657535787	1026.478624613508	549.067427269951	385.595678196194	1031.724204721391	473.470324970944	398.431246645938	991.213992554534	398.988773078494	392.180401903108	890.624475559869	295.899108046378	338.634624461670	914.920569722159	182.872395684814	416.498370965497	923.191927936664	390.300688588244	579.943474813269	790.189114679647	375.491438418300	626.304577453565	763.692746233171	266.423034206093	582.603163156465	562.151778168860	244.328328671106	529.180855150787	704.611322982832	149.460147256140	600.693319270027	593.298330990968	177.163206745930	612.715850291735	735.356950370189	29.556141362993	638.177814230623	764.929252892915	39.018662098696	450.864949647684	842.831477663526	36.578930877152	374.410128539345	926.324286271612	95.164700480904	407.050530873171	1054.821421075837	39.740528329115	382.145601950570	921.312238244677	1071.840836509488	155.120761659645	1015.526152464485	828.667101838362	164.626214602073	936.886267556040	1065.243252325772	731.127768810318	1067.439554896981	843.409424213922	767.482271573386	
57	12.538000000000	719.913977278002	984.695700907845	450.136415962891	905.321830046006	1419.594012296550	286.151319240594	998.160199429374	1346.484853838248	451.286575532623	906.568125684999	1414.777898517272	622.261769740751	882.358260753002	1478.467124245171	445.325281539765	944.214208555900	924.622937114934	580.365687242237	948.350896558893	946.299559383460	306.540873755993	1007.916114316630	733.195372039253	558.862356166008	942.126668397840	618.364774912355	622.866511788622	1030.102261519605	566.535419941995	548.276535486114	1026.507312508727	451.876053932075	573.586729011694	1011.761594272054	743.054944240895	358.827260083128	942.311848802037	611.636572956899	306.066120563178	1026.344426426391	547.248787711887	386.143169915500	1031.397395959380	471.461861253353	399.433999168669	989.792268221995	396.956303147393	392.890855727579	888.103657474488	295.094281219551	338.820762581391	910.220315445833	181.823421046411	416.863057088762	936.455844237399	391.708625269062	577.127847769662	802.783163612107	377.307900250050	622.697004996458	776.539413589359	267.852378893723	579.759084471883	575.003014249373	244.964640310912	525.004327239065	717.666823816843	151.600475535203	598.596314014764	605.968871078476	179.072578720514	609.811290621988	748.508826353146	30.333127093840	638.351584409883	758.573708893135	39.063072945200	450.783474106532	836.506146555472	36.566723923797	374.364506627095	920.031681064550	95.010123820228	407.190284021606	1048.487190970924	39.625466532469	382.110129794986	936.057674551796	1073.555104969015	152.344835878151	1044.319756590359	836.435263580658	163.431068612302	912.057480502405	1059.648007150499	728.109736539529	1022.622720919627	826.693235897556	763.868145927908	
